# xmcd
# Copyright (C) 1995-1998 Ti Kan
#
# Track frame offsets:
#       150
#       18096
#       36749
#       52575
#       74620
#       92661
#       108090
#       123694
#       139593
#       151834
#       167996
#       184139
#       208938
#       229990
#
# Disc length: 4243 seconds
#
# Revision: 0
# Processed by: cddbd v1.5.2PL0 Copyright (c) Steve Scherf et al.
# Submitted via: CD-Transfer v1.0
#
DISCID=c210910e
DTITLE=Sebastian Portillo - Utopia [CD)
DYEAR=08
DGENRE=
TTITLE0=Utopia (Radio Edit)
TTITLE1=Mr. Troublesoulpreacher (Radio Edit)
TTITLE2=Like A Bird In A Cage (Radio Edit)
TTITLE3=Overloaded Today (Radio Edit)
TTITLE4=Emotional Mistake (Radio Edit)
TTITLE5=On The Inside (Radio Edit)
TTITLE6=Leave Me Alone (Radio Edit)
TTITLE7=Circus Today (Radio Edit)
TTITLE8=Every Minute Every Second (Radio Edit)
TTITLE9=Natural Queen (Radio Edit)
TTITLE10=Here I Am (Radio Edit)
TTITLE11=Suffering (Radio Edit)
TTITLE12=Eternity (Radio Edit)
TTITLE13=Nautral Queen 2 (Beta Version)
EXTD=
EXTT0=
EXTT1=
EXTT2=
EXTT3=
EXTT4=
EXTT5=
EXTT6=
EXTT7=
EXTT8=
EXTT9=
EXTT10=
EXTT11=
EXTT12=
EXTT13=
PLAYORDER=
